# Wavefront OBJ file automatically generated by Tiled2Unity

# Vertices (Count = 286)
v -58 -3 0
v -59 -3 0
v -59 -1.5 0
v -58 -1.5 0
v -53 -4 0
v -54 -4 0
v -54 -3 0
v -53 -3 0
v -55 -4 0
v -55 -3 0
v -56 -4 0
v -56 -3 0
v -57 -4 0
v -57 -3 0
v -58 -4 0
v -59 -4 0
v -60 -4 0
v -60 -3 0
v -61 -4 0
v -61 -3 0
v -47 -7 0
v -48 -7 0
v -48 -6 0
v -47 -6 0
v -49 -7 0
v -49 -6 0
v -50 -7 0
v -50 -6 0
v -51 -7 0
v -51 -6 0
v -52 -7 0
v -52 -6 0
v -53 -7 0
v -53 -6 0
v -54 -7 0
v -54 -6 0
v 0 -10 0
v -1 -10 0
v -1 -9 0
v 0 -9 0
v -2 -10 0
v -2 -9 0
v -3 -10 0
v -3 -9 0
v -4 -10 0
v -4 -9 0
v -5 -10 0
v -5 -9 0
v -6 -10 0
v -6 -9 0
v -7 -10 0
v -7 -9 0
v -8 -10 0
v -8 -9 0
v -9 -10 0
v -9 -9 0
v -10 -10 0
v -10 -9 0
v -11 -10 0
v -11 -9 0
v -12 -10 0
v -12 -9 0
v -13 -10 0
v -13 -9 0
v -14 -10 0
v -14 -9 0
v -15 -10 0
v -15 -9 0
v -16 -10 0
v -16 -9 0
v -17 -10 0
v -17 -9 0
v -18 -10 0
v -18 -9 0
v -19 -10 0
v -19 -9 0
v -20 -10 0
v -20 -9 0
v -21 -10 0
v -21 -9 0
v -22 -10 0
v -22 -9 0
v -23 -10 0
v -23 -9 0
v -24 -10 0
v -24 -9 0
v -25 -10 0
v -25 -9 0
v -27 -10 0
v -28 -10 0
v -28 -9 0
v -27 -9 0
v -29 -10 0
v -29 -9 0
v -30 -10 0
v -30 -9 0
v -31 -10 0
v -31 -9 0
v -32 -10 0
v -32 -9 0
v -33 -10 0
v -33 -9 0
v -34 -10 0
v -34 -9 0
v -35 -10 0
v -35 -9 0
v -36 -10 0
v -36 -9 0
v -37 -10 0
v -37 -9 0
v -60 -10 0
v -61 -10 0
v -61 -9 0
v -60 -9 0
v -62 -10 0
v -62 -9 0
v -63 -10 0
v -63 -9 0
v -64 -10 0
v -64 -9 0
v -65 -10 0
v -65 -9 0
v -66 -10 0
v -66 -9 0
v -67 -10 0
v -67 -9 0
v -68 -10 0
v -68 -9 0
v -69 -10 0
v -69 -9 0
v -70 -10 0
v -70 -9 0
v 0 -11 0
v -1 -11 0
v -2 -11 0
v -3 -11 0
v -4 -11 0
v -5 -11 0
v -6 -11 0
v -7 -11 0
v -8 -11 0
v -9 -11 0
v -10 -11 0
v -11 -11 0
v -12 -11 0
v -13 -11 0
v -14 -11 0
v -15 -11 0
v -16 -11 0
v -17 -11 0
v -18 -11 0
v -19 -11 0
v -20 -11 0
v -21 -11 0
v -22 -11 0
v -23 -11 0
v -24 -11 0
v -25 -11 0
v -27 -11 0
v -28 -11 0
v -29 -11 0
v -30 -11 0
v -31 -11 0
v -32 -11 0
v -33 -11 0
v -34 -11 0
v -35 -11 0
v -36 -11 0
v -37 -11 0
v -40 -11 0
v -41 -11 0
v -41 -10 0
v -40 -10 0
v -42 -11 0
v -42 -10 0
v -43 -11 0
v -43 -10 0
v -44 -11 0
v -44 -10 0
v -45 -11 0
v -45 -10 0
v -46 -11 0
v -46 -10 0
v -47 -11 0
v -47 -10 0
v -48 -11 0
v -48 -10 0
v -49 -11 0
v -49 -10 0
v -50 -11 0
v -50 -10 0
v -51 -11 0
v -51 -10 0
v -52 -11 0
v -52 -10 0
v -53 -11 0
v -53 -10 0
v -54 -11 0
v -54 -10 0
v -55 -11 0
v -55 -10 0
v -56 -11 0
v -56 -10 0
v -57 -11 0
v -57 -10 0
v -60 -11 0
v -61 -11 0
v -62 -11 0
v -63 -11 0
v -64 -11 0
v -65 -11 0
v -66 -11 0
v -67 -11 0
v -68 -11 0
v -69 -11 0
v -70 -11 0
v 0 -12 0
v -1 -12 0
v -2 -12 0
v -3 -12 0
v -4 -12 0
v -5 -12 0
v -6 -12 0
v -7 -12 0
v -8 -12 0
v -9 -12 0
v -10 -12 0
v -11 -12 0
v -12 -12 0
v -13 -12 0
v -14 -12 0
v -15 -12 0
v -16 -12 0
v -17 -12 0
v -18 -12 0
v -19 -12 0
v -20 -12 0
v -21 -12 0
v -22 -12 0
v -23 -12 0
v -24 -12 0
v -25 -12 0
v -27 -12 0
v -28 -12 0
v -29 -12 0
v -30 -12 0
v -31 -12 0
v -32 -12 0
v -33 -12 0
v -34 -12 0
v -35 -12 0
v -36 -12 0
v -37 -12 0
v -40 -12 0
v -41 -12 0
v -42 -12 0
v -43 -12 0
v -44 -12 0
v -45 -12 0
v -46 -12 0
v -47 -12 0
v -48 -12 0
v -49 -12 0
v -50 -12 0
v -51 -12 0
v -52 -12 0
v -53 -12 0
v -54 -12 0
v -55 -12 0
v -56 -12 0
v -57 -12 0
v -60 -12 0
v -61 -12 0
v -62 -12 0
v -63 -12 0
v -64 -12 0
v -65 -12 0
v -66 -12 0
v -67 -12 0
v -68 -12 0
v -69 -12 0
v -70 -12 0
v -9 -5 0
v -7 -5 0
v -66 -5 0
v -64 -5 0

# Texture Coorindates (Count = 48)
vt 0.0001220703 0.0001220703
vt 0.9998779 0.0001220703
vt 0.9998779 0.9998779
vt 0.0001220703 0.9998779
vt 0.3332113 0.0001220703
vt 0.3332113 0.2498779
vt 0.0001220703 0.2498779
vt 0.3334554 0.0001220703
vt 0.6665446 0.0001220703
vt 0.6665446 0.2498779
vt 0.3334554 0.2498779
vt 0.6667888 0.0001220703
vt 0.9998779 0.2498779
vt 0.6667888 0.2498779
vt 0.0001220703 0.7501221
vt 0.3332113 0.7501221
vt 0.3332113 0.9998779
vt 0.3334554 0.7501221
vt 0.6665446 0.7501221
vt 0.6665446 0.9998779
vt 0.3334554 0.9998779
vt 0.6667888 0.7501221
vt 0.9998779 0.7501221
vt 0.6667888 0.9998779
vt 0.0001220703 0.5001221
vt 0.3332113 0.5001221
vt 0.3332113 0.7498779
vt 0.0001220703 0.7498779
vt 0.3334554 0.5001221
vt 0.6665446 0.5001221
vt 0.6665446 0.7498779
vt 0.3334554 0.7498779
vt 0.6667888 0.5001221
vt 0.9998779 0.5001221
vt 0.9998779 0.7498779
vt 0.6667888 0.7498779
vt 0.0001220703 0.2501221
vt 0.3332113 0.2501221
vt 0.3332113 0.4998779
vt 0.0001220703 0.4998779
vt 0.3334554 0.2501221
vt 0.6665446 0.2501221
vt 0.6665446 0.4998779
vt 0.3334554 0.4998779
vt 0.6667888 0.2501221
vt 0.9998779 0.2501221
vt 0.9998779 0.4998779
vt 0.6667888 0.4998779

# Normal
vn 0 0 -1

# Groups (Count = 3)
g mesh_[00]_[02]
f  1/1/1  2/2/1  3/3/1  4/4/1 
g mesh_[01]_[00]
f  5/1/1  6/5/1  7/6/1  8/7/1 
f  6/8/1  9/9/1  10/10/1  7/11/1 
f  9/8/1  11/9/1  12/10/1  10/11/1 
f  11/8/1  13/9/1  14/10/1  12/11/1 
f  13/8/1  15/9/1  1/10/1  14/11/1 
f  15/8/1  16/9/1  2/10/1  1/11/1 
f  16/8/1  17/9/1  18/10/1  2/11/1 
f  17/12/1  19/2/1  20/13/1  18/14/1 
f  21/1/1  22/5/1  23/6/1  24/7/1 
f  22/8/1  25/9/1  26/10/1  23/11/1 
f  25/8/1  27/9/1  28/10/1  26/11/1 
f  27/8/1  29/9/1  30/10/1  28/11/1 
f  29/8/1  31/9/1  32/10/1  30/11/1 
f  31/8/1  33/9/1  34/10/1  32/11/1 
f  33/12/1  35/2/1  36/13/1  34/14/1 
f  37/15/1  38/16/1  39/17/1  40/4/1 
f  38/18/1  41/19/1  42/20/1  39/21/1 
f  41/18/1  43/19/1  44/20/1  42/21/1 
f  43/18/1  45/19/1  46/20/1  44/21/1 
f  45/18/1  47/19/1  48/20/1  46/21/1 
f  47/18/1  49/19/1  50/20/1  48/21/1 
f  49/18/1  51/19/1  52/20/1  50/21/1 
f  51/18/1  53/19/1  54/20/1  52/21/1 
f  53/18/1  55/19/1  56/20/1  54/21/1 
f  55/18/1  57/19/1  58/20/1  56/21/1 
f  57/18/1  59/19/1  60/20/1  58/21/1 
f  59/18/1  61/19/1  62/20/1  60/21/1 
f  61/18/1  63/19/1  64/20/1  62/21/1 
f  63/18/1  65/19/1  66/20/1  64/21/1 
f  65/18/1  67/19/1  68/20/1  66/21/1 
f  67/18/1  69/19/1  70/20/1  68/21/1 
f  69/18/1  71/19/1  72/20/1  70/21/1 
f  71/18/1  73/19/1  74/20/1  72/21/1 
f  73/18/1  75/19/1  76/20/1  74/21/1 
f  75/18/1  77/19/1  78/20/1  76/21/1 
f  77/18/1  79/19/1  80/20/1  78/21/1 
f  79/18/1  81/19/1  82/20/1  80/21/1 
f  81/18/1  83/19/1  84/20/1  82/21/1 
f  83/18/1  85/19/1  86/20/1  84/21/1 
f  85/22/1  87/23/1  88/3/1  86/24/1 
f  89/15/1  90/16/1  91/17/1  92/4/1 
f  90/18/1  93/19/1  94/20/1  91/21/1 
f  93/18/1  95/19/1  96/20/1  94/21/1 
f  95/18/1  97/19/1  98/20/1  96/21/1 
f  97/18/1  99/19/1  100/20/1  98/21/1 
f  99/18/1  101/19/1  102/20/1  100/21/1 
f  101/18/1  103/19/1  104/20/1  102/21/1 
f  103/18/1  105/19/1  106/20/1  104/21/1 
f  105/18/1  107/19/1  108/20/1  106/21/1 
f  107/22/1  109/23/1  110/3/1  108/24/1 
f  111/15/1  112/16/1  113/17/1  114/4/1 
f  112/18/1  115/19/1  116/20/1  113/21/1 
f  115/18/1  117/19/1  118/20/1  116/21/1 
f  117/18/1  119/19/1  120/20/1  118/21/1 
f  119/18/1  121/19/1  122/20/1  120/21/1 
f  121/18/1  123/19/1  124/20/1  122/21/1 
f  123/18/1  125/19/1  126/20/1  124/21/1 
f  125/18/1  127/19/1  128/20/1  126/21/1 
f  127/18/1  129/19/1  130/20/1  128/21/1 
f  129/22/1  131/23/1  132/3/1  130/24/1 
f  133/25/1  134/26/1  38/27/1  37/28/1 
f  134/29/1  135/30/1  41/31/1  38/32/1 
f  135/29/1  136/30/1  43/31/1  41/32/1 
f  136/29/1  137/30/1  45/31/1  43/32/1 
f  137/29/1  138/30/1  47/31/1  45/32/1 
f  138/29/1  139/30/1  49/31/1  47/32/1 
f  139/29/1  140/30/1  51/31/1  49/32/1 
f  140/29/1  141/30/1  53/31/1  51/32/1 
f  141/29/1  142/30/1  55/31/1  53/32/1 
f  142/29/1  143/30/1  57/31/1  55/32/1 
f  143/29/1  144/30/1  59/31/1  57/32/1 
f  144/29/1  145/30/1  61/31/1  59/32/1 
f  145/29/1  146/30/1  63/31/1  61/32/1 
f  146/29/1  147/30/1  65/31/1  63/32/1 
f  147/29/1  148/30/1  67/31/1  65/32/1 
f  148/29/1  149/30/1  69/31/1  67/32/1 
f  149/29/1  150/30/1  71/31/1  69/32/1 
f  150/29/1  151/30/1  73/31/1  71/32/1 
f  151/29/1  152/30/1  75/31/1  73/32/1 
f  152/29/1  153/30/1  77/31/1  75/32/1 
f  153/29/1  154/30/1  79/31/1  77/32/1 
f  154/29/1  155/30/1  81/31/1  79/32/1 
f  155/29/1  156/30/1  83/31/1  81/32/1 
f  156/29/1  157/30/1  85/31/1  83/32/1 
f  157/33/1  158/34/1  87/35/1  85/36/1 
f  159/25/1  160/26/1  90/27/1  89/28/1 
f  160/29/1  161/30/1  93/31/1  90/32/1 
f  161/29/1  162/30/1  95/31/1  93/32/1 
f  162/29/1  163/30/1  97/31/1  95/32/1 
f  163/29/1  164/30/1  99/31/1  97/32/1 
f  164/29/1  165/30/1  101/31/1  99/32/1 
f  165/29/1  166/30/1  103/31/1  101/32/1 
f  166/29/1  167/30/1  105/31/1  103/32/1 
f  167/29/1  168/30/1  107/31/1  105/32/1 
f  168/33/1  169/34/1  109/35/1  107/36/1 
f  170/15/1  171/16/1  172/17/1  173/4/1 
f  171/18/1  174/19/1  175/20/1  172/21/1 
f  174/18/1  176/19/1  177/20/1  175/21/1 
f  176/18/1  178/19/1  179/20/1  177/21/1 
f  178/18/1  180/19/1  181/20/1  179/21/1 
f  180/18/1  182/19/1  183/20/1  181/21/1 
f  182/18/1  184/19/1  185/20/1  183/21/1 
f  184/18/1  186/19/1  187/20/1  185/21/1 
f  186/18/1  188/19/1  189/20/1  187/21/1 
f  188/18/1  190/19/1  191/20/1  189/21/1 
f  190/18/1  192/19/1  193/20/1  191/21/1 
f  192/18/1  194/19/1  195/20/1  193/21/1 
f  194/18/1  196/19/1  197/20/1  195/21/1 
f  196/18/1  198/19/1  199/20/1  197/21/1 
f  198/18/1  200/19/1  201/20/1  199/21/1 
f  200/18/1  202/19/1  203/20/1  201/21/1 
f  202/22/1  204/23/1  205/3/1  203/24/1 
f  206/25/1  207/26/1  112/27/1  111/28/1 
f  207/29/1  208/30/1  115/31/1  112/32/1 
f  208/29/1  209/30/1  117/31/1  115/32/1 
f  209/29/1  210/30/1  119/31/1  117/32/1 
f  210/29/1  211/30/1  121/31/1  119/32/1 
f  211/29/1  212/30/1  123/31/1  121/32/1 
f  212/29/1  213/30/1  125/31/1  123/32/1 
f  213/29/1  214/30/1  127/31/1  125/32/1 
f  214/29/1  215/30/1  129/31/1  127/32/1 
f  215/33/1  216/34/1  131/35/1  129/36/1 
f  217/37/1  218/38/1  134/39/1  133/40/1 
f  218/41/1  219/42/1  135/43/1  134/44/1 
f  219/41/1  220/42/1  136/43/1  135/44/1 
f  220/41/1  221/42/1  137/43/1  136/44/1 
f  221/41/1  222/42/1  138/43/1  137/44/1 
f  222/41/1  223/42/1  139/43/1  138/44/1 
f  223/41/1  224/42/1  140/43/1  139/44/1 
f  224/41/1  225/42/1  141/43/1  140/44/1 
f  225/41/1  226/42/1  142/43/1  141/44/1 
f  226/41/1  227/42/1  143/43/1  142/44/1 
f  227/41/1  228/42/1  144/43/1  143/44/1 
f  228/41/1  229/42/1  145/43/1  144/44/1 
f  229/41/1  230/42/1  146/43/1  145/44/1 
f  230/41/1  231/42/1  147/43/1  146/44/1 
f  231/41/1  232/42/1  148/43/1  147/44/1 
f  232/41/1  233/42/1  149/43/1  148/44/1 
f  233/41/1  234/42/1  150/43/1  149/44/1 
f  234/41/1  235/42/1  151/43/1  150/44/1 
f  235/41/1  236/42/1  152/43/1  151/44/1 
f  236/41/1  237/42/1  153/43/1  152/44/1 
f  237/41/1  238/42/1  154/43/1  153/44/1 
f  238/41/1  239/42/1  155/43/1  154/44/1 
f  239/41/1  240/42/1  156/43/1  155/44/1 
f  240/41/1  241/42/1  157/43/1  156/44/1 
f  241/45/1  242/46/1  158/47/1  157/48/1 
f  243/37/1  244/38/1  160/39/1  159/40/1 
f  244/41/1  245/42/1  161/43/1  160/44/1 
f  245/41/1  246/42/1  162/43/1  161/44/1 
f  246/41/1  247/42/1  163/43/1  162/44/1 
f  247/41/1  248/42/1  164/43/1  163/44/1 
f  248/41/1  249/42/1  165/43/1  164/44/1 
f  249/41/1  250/42/1  166/43/1  165/44/1 
f  250/41/1  251/42/1  167/43/1  166/44/1 
f  251/41/1  252/42/1  168/43/1  167/44/1 
f  252/45/1  253/46/1  169/47/1  168/48/1 
f  254/25/1  255/26/1  171/27/1  170/28/1 
f  255/29/1  256/30/1  174/31/1  171/32/1 
f  256/29/1  257/30/1  176/31/1  174/32/1 
f  257/29/1  258/30/1  178/31/1  176/32/1 
f  258/29/1  259/30/1  180/31/1  178/32/1 
f  259/29/1  260/30/1  182/31/1  180/32/1 
f  260/29/1  261/30/1  184/31/1  182/32/1 
f  261/29/1  262/30/1  186/31/1  184/32/1 
f  262/29/1  263/30/1  188/31/1  186/32/1 
f  263/29/1  264/30/1  190/31/1  188/32/1 
f  264/29/1  265/30/1  192/31/1  190/32/1 
f  265/29/1  266/30/1  194/31/1  192/32/1 
f  266/29/1  267/30/1  196/31/1  194/32/1 
f  267/29/1  268/30/1  198/31/1  196/32/1 
f  268/29/1  269/30/1  200/31/1  198/32/1 
f  269/29/1  270/30/1  202/31/1  200/32/1 
f  270/33/1  271/34/1  204/35/1  202/36/1 
f  272/37/1  273/38/1  207/39/1  206/40/1 
f  273/41/1  274/42/1  208/43/1  207/44/1 
f  274/41/1  275/42/1  209/43/1  208/44/1 
f  275/41/1  276/42/1  210/43/1  209/44/1 
f  276/41/1  277/42/1  211/43/1  210/44/1 
f  277/41/1  278/42/1  212/43/1  211/44/1 
f  278/41/1  279/42/1  213/43/1  212/44/1 
f  279/41/1  280/42/1  214/43/1  213/44/1 
f  280/41/1  281/42/1  215/43/1  214/44/1 
f  281/45/1  282/46/1  216/47/1  215/48/1 
g mesh_[02]_[01]
f  52/1/1  56/2/1  283/3/1  284/4/1 
f  120/1/1  124/2/1  285/3/1  286/4/1 
